# xmcd
#
# Track frame offsets: 
#        150
#        4957
#        20745
#        37422
#        61860
#        77887
#        88605
#        95345
#        115722
#        133044
#        151217
#        168097
#        183720
#        205269
#
# Disc length: 3029 seconds
#
# Revision: 0
# Processed by: cddbd v1.5.2PL0 Copyright (c) Steve Scherf et al.
# Submitted via: ExactAudioCopyFreeDBPlugin 1.0
#
DISCID=b70bd30e
DTITLE=Big Sean - I Decided
DYEAR=2017
DGENRE=Hip-Hop
TTITLE0=Intro
TTITLE1=Light (feat. Jeremih)
TTITLE2=Bounce Back
TTITLE3=No Favors (feat. Eminem)
TTITLE4=Jump out the Window
TTITLE5=Moves
TTITLE6=Same Time Pt. 1 (feat. Twenty88)
TTITLE7=Owe Me
TTITLE8=Halfway off the Balcony
TTITLE9=Voices in My Head - Stick to the Plan
TTITLE10=Sunday Morning Jetpack (feat. The-Dream)
TTITLE11=Inspire Me
TTITLE12=Sacrifices (feat. Migos)
TTITLE13=Bigger Than Me (feat. Flint Chozen Choir and Starrah)
EXTD=
EXTT0=
EXTT1=
EXTT2=
EXTT3=
EXTT4=
EXTT5=
EXTT6=
EXTT7=
EXTT8=
EXTT9=
EXTT10=
EXTT11=
EXTT12=
EXTT13=
PLAYORDER=
